<svg width="16" height="16" fill="none" xmlns="http://www.w3.org/2000/svg"><g clip-path="url(#a)" fill="#fff"><path d="M10.207 5.797a.375.375 0 0 0-.375.375v7.082a.375.375 0 0 0 .75 0V6.172a.375.375 0 0 0-.375-.375ZM5.785 5.797a.375.375 0 0 0-.374.375v7.082a.375.375 0 1 0 .75 0V6.172a.375.375 0 0 0-.376-.375Z"/><path d="M2.563 4.763v9.232c0 .546.2 1.058.55 1.426.347.369.832.578 1.338.579h7.09c.507 0 .991-.21 1.339-.579.35-.368.55-.88.55-1.426V4.763a1.431 1.431 0 0 0-.368-2.814h-1.918V1.48A1.472 1.472 0 0 0 9.66 0H6.333a1.472 1.472 0 0 0-1.484 1.48v.469H2.93a1.432 1.432 0 0 0-.367 2.814Zm8.978 10.488h-7.09c-.64 0-1.139-.55-1.139-1.256V4.796h9.368v9.2c0 .704-.498 1.255-1.139 1.255ZM5.598 1.48a.721.721 0 0 1 .735-.732H9.66a.722.722 0 0 1 .734.731v.469H5.598V1.48ZM2.93 2.697h10.132a.674.674 0 1 1 0 1.349H2.93a.674.674 0 1 1 0-1.35Z"/><path d="M7.996 5.797a.375.375 0 0 0-.375.375v7.082a.375.375 0 0 0 .75 0V6.172a.375.375 0 0 0-.375-.375Z"/></g><defs><clipPath id="a"><path fill="#fff" d="M0 0h16v16H0z"/></clipPath></defs></svg>